<svg width="20" height="24" viewBox="0 0 20 24" fill="none" xmlns="http://www.w3.org/2000/svg">
<path d="M5.4634 8.5977C5.8211 8.1655 6.21792 7.80911 6.64 7.52754C8.9924 5.96119 12.0089 6.79408 13.5212 9.56448L11.6911 11.7747C11.1664 10.3285 9.86345 9.50541 8.56706 9.8559C8.07898 9.98782 7.61535 10.2822 7.23645 10.74L3.72945 14.9793C2.66447 16.266 2.66447 18.3591 3.72945 19.6458C4.79443 20.9326 6.52674 20.9326 7.59172 19.6458L8.67299 18.3394C9.65648 18.811 10.7109 18.999 11.7522 18.9055L9.36559 21.7891C7.31957 24.2612 4.00242 24.2612 1.95639 21.7891C-0.0896309 19.317 -0.0896309 15.3091 1.95639 12.837L5.4634 8.5977ZM11.0335 1.86761L8.64692 4.75123C9.68745 4.65672 10.7426 4.84575 11.7261 5.31634L12.8066 4.01088C13.8716 2.72413 15.6039 2.72413 16.6689 4.01088C17.7338 5.29763 17.7338 7.39069 16.6689 8.67744L13.161 12.9157C12.0928 14.2064 10.358 14.1956 9.29877 12.9157C9.05188 12.6174 8.83921 12.2463 8.7064 11.881L6.8763 14.0912C7.0686 14.4437 7.26823 14.7479 7.5249 15.058C8.18654 15.8574 9.02907 16.4531 9.99871 16.7356C11.2552 17.1009 12.6013 16.8991 13.7575 16.1282C14.1796 15.8466 14.5764 15.4902 14.9341 15.058L18.4411 10.8197C20.4879 8.34763 20.4879 4.33971 18.4419 1.86761C16.3959 -0.603495 13.0796 -0.603495 11.0335 1.86761Z" fill="#A0A0A0"/>
</svg>
