<svg width="121" height="14" viewBox="0 0 121 14" fill="none" xmlns="http://www.w3.org/2000/svg">
<path d="M15.1382 8.51748C15.1382 10.1655 14.8034 11.3811 14.1337 12.1643C13.0412 13.3881 10.9529 14 7.86908 14C5.8073 14 4.14201 13.7063 2.87322 13.1189C1.9745 12.6783 1.36654 12.0583 1.04934 11.2587C0.749763 10.5245 0.599976 9.61072 0.599976 8.51748V0H3.71908V7.85664C3.71908 8.62354 3.78957 9.21096 3.93055 9.61888C4.08915 10.0268 4.3711 10.3613 4.77641 10.6224C5.53416 11.1445 6.61791 11.4056 8.02768 11.4056C9.45507 11.4056 10.5476 11.1445 11.3054 10.6224C11.6931 10.3613 11.9574 10.0268 12.0984 9.61888C12.257 9.21096 12.3363 8.62354 12.3363 7.85664V0H15.1382V8.51748Z" fill="black"/>
<path d="M32.6665 4.67483V13.7063H29.8646V0H32.6136L42.4732 8.81119V0H45.2751V13.7063H42.8168L32.6665 4.67483Z" fill="black"/>
<path d="M68.1958 6.60839L73.7732 13.7063H70.1783L66.1869 9.03147L62.2483 13.7063H58.9706L64.5744 6.75524L59.2878 0H62.9885L66.6362 4.38112L70.1783 0H73.641L68.1958 6.60839Z" fill="black"/>
<path d="M87.733 0H95.3457C97.1256 0 98.5265 0.212121 99.5486 0.636364C100.958 1.22378 101.972 2.19464 102.588 3.54895C103.029 4.49534 103.249 5.59674 103.249 6.85315C103.249 9.2028 102.518 10.9814 101.055 12.1888C100.403 12.7273 99.6279 13.1189 98.7292 13.3636C97.8305 13.5921 96.7026 13.7063 95.3457 13.7063H87.733V0ZM90.8521 11.2343H94.8435C96.6233 11.2343 97.9362 10.8671 98.782 10.1329C99.6279 9.36597 100.051 8.27273 100.051 6.85315C100.051 5.44988 99.6279 4.3648 98.782 3.5979C98.3415 3.20629 97.804 2.9289 97.1696 2.76573C96.5529 2.58625 95.7775 2.4965 94.8435 2.4965H90.8521V11.2343Z" fill="black"/>
<path d="M118.848 9.98601C119.394 9.98601 119.852 10.1818 120.222 10.5734C120.61 10.965 120.804 11.4464 120.804 12.0175C120.804 12.5559 120.61 13.021 120.222 13.4126C119.835 13.8042 119.377 14 118.848 14C118.302 14 117.835 13.8042 117.447 13.4126C117.077 13.021 116.892 12.5478 116.892 11.993C116.892 11.4382 117.077 10.9732 117.447 10.5979C117.817 10.2063 118.284 10.0023 118.848 9.98601Z" fill="black"/>
</svg>
