<svg width="17" height="19" viewBox="0 0 17 19" fill="none" xmlns="http://www.w3.org/2000/svg">
<path d="M8.24001 18.1667C9.32901 18.1667 10.22 17.3417 10.22 16.3333H6.26001C6.26001 17.3417 7.15101 18.1667 8.24001 18.1667ZM14.18 12.6667V8.08332C14.18 5.26916 12.5663 2.91332 9.72501 2.28999V1.66666C9.72501 0.905823 9.06171 0.291656 8.24001 0.291656C7.41831 0.291656 6.75501 0.905823 6.75501 1.66666V2.28999C3.92361 2.91332 2.30001 5.25999 2.30001 8.08332V12.6667L0.320007 14.5V15.4167H16.16V14.5L14.18 12.6667ZM12.2 13.5833H4.28001V8.08332C4.28001 5.80999 5.77491 3.95832 8.24001 3.95832C10.7051 3.95832 12.2 5.80999 12.2 8.08332V13.5833Z" fill="#2D2D2D"/>
</svg>
