<svg width="18" height="17" viewBox="0 0 18 17" fill="none" xmlns="http://www.w3.org/2000/svg">
<path d="M12.825 10.8333H12.0429L11.7657 10.5858C12.7359 9.54083 13.32 8.18417 13.32 6.70833C13.32 3.4175 10.4391 0.75 6.88495 0.75C3.33085 0.75 0.449951 3.4175 0.449951 6.70833C0.449951 9.99917 3.33085 12.6667 6.88495 12.6667C8.47885 12.6667 9.94405 12.1258 11.0727 11.2275L11.34 11.4842V12.2083L16.29 16.7825L17.7651 15.4167L12.825 10.8333ZM6.88495 10.8333C4.41985 10.8333 2.42995 8.99083 2.42995 6.70833C2.42995 4.42583 4.41985 2.58333 6.88495 2.58333C9.35005 2.58333 11.34 4.42583 11.34 6.70833C11.34 8.99083 9.35005 10.8333 6.88495 10.8333Z" fill="#2D2D2D"/>
</svg>
