<svg width="21" height="20" viewBox="0 0 21 20" fill="none" xmlns="http://www.w3.org/2000/svg">
<path d="M20.3468 2.50058C19.6273 2.88651 18.854 3.14642 18.0425 3.26357C18.8712 2.66401 19.5075 1.71396 19.8066 0.581778C19.0317 1.13704 18.1728 1.54069 17.2586 1.75826C16.5277 0.81609 15.4839 0.227356 14.3301 0.227356C11.7398 0.227356 9.83638 3.1474 10.4214 6.17869C7.08798 5.97687 4.1318 4.04724 2.15259 1.1144C1.10146 3.29311 1.60747 6.14325 3.39356 7.58654C2.73682 7.56094 2.11755 7.34336 1.57732 6.98008C1.53332 9.22574 2.86556 11.3267 4.79506 11.7943C4.23039 11.9794 3.61194 12.0227 2.98289 11.877C3.49297 13.8027 4.97432 15.2037 6.73109 15.243C5.0444 16.8409 2.91934 17.5547 0.791016 17.2514C2.56652 18.6268 4.6761 19.4292 6.94131 19.4292C14.3904 19.4292 18.599 11.8278 18.3448 5.01008C19.1286 4.32585 19.809 3.47229 20.3468 2.50058Z" fill="#A0A0A0"/>
</svg>
