<svg width="126" height="20" viewBox="0 0 126 20" fill="none" xmlns="http://www.w3.org/2000/svg">
<path d="M15.8098 11.7202C15.8098 13.9479 15.463 15.591 14.7693 16.6497C13.6376 18.3039 11.4744 19.131 8.27992 19.131C6.14416 19.131 4.41912 18.734 3.10481 17.94C2.17384 17.3445 1.54406 16.5064 1.21549 15.4256C0.905162 14.4331 0.75 13.198 0.75 11.7202V0.206909H3.98102V10.8269C3.98102 11.8636 4.05404 12.6576 4.20007 13.209C4.36436 13.7604 4.65643 14.2125 5.07628 14.5654C5.86122 15.2712 6.98386 15.6241 8.4442 15.6241C9.92281 15.6241 11.0546 15.2712 11.8395 14.5654C12.2411 14.2125 12.5149 13.7604 12.661 13.209C12.8252 12.6576 12.9074 11.8636 12.9074 10.8269V0.206909H15.8098V11.7202Z" fill="white"/>
<path d="M33.9671 6.52598V18.734H31.0646V0.206909H33.9123L44.1256 12.1172V0.206909H47.028V18.734H44.4816L33.9671 6.52598Z" fill="white"/>
<path d="M70.7711 9.13963L76.5486 18.734H72.8247L68.6901 12.415L64.6103 18.734H61.2149L67.0198 9.33813L61.5435 0.206909H65.3769L69.1556 6.12897L72.8247 0.206909H76.4117L70.7711 9.13963Z" fill="white"/>
<path d="M91.0093 0.206909H98.8952C100.739 0.206909 102.19 0.493638 103.249 1.0671C104.709 1.86112 105.759 3.17345 106.398 5.00411C106.854 6.28336 107.082 7.77215 107.082 9.47047C107.082 12.6465 106.325 15.0507 104.81 16.6828C104.134 17.4107 103.331 17.94 102.4 18.2709C101.469 18.5796 100.301 18.734 98.8952 18.734H91.0093V0.206909ZM94.2403 15.3925H98.3749C100.219 15.3925 101.579 14.8963 102.455 13.9037C103.331 12.8671 103.769 11.3894 103.769 9.47047C103.769 7.57365 103.331 6.10692 102.455 5.07028C101.998 4.54093 101.442 4.16598 100.785 3.94542C100.146 3.7028 99.3424 3.58149 98.3749 3.58149H94.2403V15.3925Z" fill="white"/>
<path d="M123.241 13.7052C123.807 13.7052 124.281 13.9699 124.664 14.4993C125.066 15.0286 125.267 15.6793 125.267 16.4512C125.267 17.1791 125.066 17.8077 124.664 18.337C124.263 18.8664 123.788 19.131 123.241 19.131C122.675 19.131 122.191 18.8664 121.789 18.337C121.406 17.8077 121.214 17.168 121.214 16.4181C121.214 15.6682 121.406 15.0396 121.789 14.5323C122.173 14.003 122.657 13.7273 123.241 13.7052Z" fill="white"/>
</svg>
